<svg width="22" height="22" viewBox="0 0 22 22" fill="none" xmlns="http://www.w3.org/2000/svg">
<path d="M11 1.83337C5.94916 1.83337 1.83333 5.94921 1.83333 11C1.83333 16.0509 5.94916 20.1667 11 20.1667C16.0508 20.1667 20.1667 16.0509 20.1667 11C20.1667 5.94921 16.0508 1.83337 11 1.83337ZM14.08 13.1084C14.3458 13.3742 14.3458 13.8142 14.08 14.08C13.9425 14.2175 13.7683 14.2817 13.5942 14.2817C13.42 14.2817 13.2458 14.2175 13.1083 14.08L11 11.9717L8.89166 14.08C8.75416 14.2175 8.57999 14.2817 8.40583 14.2817C8.23166 14.2817 8.0575 14.2175 7.91999 14.08C7.65416 13.8142 7.65416 13.3742 7.91999 13.1084L10.0283 11L7.91999 8.89171C7.65416 8.62587 7.65416 8.18587 7.91999 7.92004C8.18583 7.65421 8.62583 7.65421 8.89166 7.92004L11 10.0284L13.1083 7.92004C13.3742 7.65421 13.8142 7.65421 14.08 7.92004C14.3458 8.18587 14.3458 8.62587 14.08 8.89171L11.9717 11L14.08 13.1084Z" fill="#C9D4CB"/>
</svg>
