<svg width="16" height="16" viewBox="0 0 16 16" fill="none" xmlns="http://www.w3.org/2000/svg">
<path d="M10.7933 1.33337H5.20668C2.78001 1.33337 1.33334 2.78004 1.33334 5.20671V10.7867C1.33334 13.22 2.78001 14.6667 5.20668 14.6667H10.7867C13.2133 14.6667 14.66 13.22 14.66 10.7934V5.20671C14.6667 2.78004 13.22 1.33337 10.7933 1.33337ZM7.30001 11.6734C7.10668 11.8667 6.74001 12.0534 6.47334 12.0934L4.83334 12.3267C4.77334 12.3334 4.71334 12.34 4.65334 12.34C4.38001 12.34 4.12668 12.2467 3.94668 12.0667C3.72668 11.8467 3.63334 11.5267 3.68668 11.1734L3.92001 9.53337C3.96001 9.26004 4.14001 8.90004 4.34001 8.70671L7.31334 5.73337C7.36668 5.87337 7.42001 6.01337 7.49334 6.17337C7.56001 6.31337 7.63334 6.46004 7.71334 6.59337C7.78001 6.70671 7.85334 6.81337 7.91334 6.89337C7.98668 7.00671 8.07334 7.11337 8.12668 7.17337C8.16001 7.22004 8.18668 7.25337 8.20001 7.26671C8.36668 7.46671 8.56001 7.65337 8.72668 7.79337C8.77334 7.84004 8.80001 7.86671 8.81334 7.87337C8.91334 7.95337 9.01334 8.03337 9.10001 8.09337C9.20668 8.17337 9.31334 8.24671 9.42668 8.30671C9.56001 8.38671 9.70668 8.46004 9.85334 8.53337C10.0067 8.60004 10.1467 8.66004 10.2867 8.70671L7.30001 11.6734ZM11.58 7.39337L10.9667 8.01337C10.9267 8.05337 10.8733 8.07337 10.82 8.07337C10.8 8.07337 10.7733 8.07337 10.76 8.06671C9.40668 7.68004 8.32668 6.60004 7.94001 5.24671C7.92001 5.17337 7.94001 5.09337 7.99334 5.04671L8.61334 4.42671C9.62668 3.41337 10.5933 3.43337 11.5867 4.42671C12.0933 4.93337 12.34 5.42004 12.34 5.92671C12.3333 6.40671 12.0867 6.88671 11.58 7.39337Z" fill="#10A642"/>
</svg>
