<svg width="18" height="18" viewBox="0 0 18 18" fill="none" xmlns="http://www.w3.org/2000/svg">
<path d="M14.925 7.875H3.075C1.95 7.875 1.5 7.395 1.5 6.2025V3.1725C1.5 1.98 1.95 1.5 3.075 1.5H14.925C16.05 1.5 16.5 1.98 16.5 3.1725V6.2025C16.5 7.395 16.05 7.875 14.925 7.875Z" fill="#10A642"/>
<path d="M9.675 16.5H3.075C1.95 16.5 1.5 16.02 1.5 14.8275V11.7975C1.5 10.605 1.95 10.125 3.075 10.125H9.675C10.8 10.125 11.25 10.605 11.25 11.7975V14.8275C11.25 16.02 10.8 16.5 9.675 16.5Z" fill="#10A642"/>
</svg>
