<svg width="22" height="22" viewBox="0 0 22 22" fill="none" xmlns="http://www.w3.org/2000/svg">
<path d="M11 1.83337C5.94916 1.83337 1.83333 5.94921 1.83333 11C1.83333 16.0509 5.94916 20.1667 11 20.1667C16.0508 20.1667 20.1667 16.0509 20.1667 11C20.1667 5.94921 16.0508 1.83337 11 1.83337ZM15.3817 8.89171L10.1842 14.0892C10.0558 14.2175 9.88166 14.2909 9.69833 14.2909C9.51499 14.2909 9.34083 14.2175 9.21249 14.0892L6.61833 11.495C6.35249 11.2292 6.35249 10.7892 6.61833 10.5234C6.88416 10.2575 7.32416 10.2575 7.58999 10.5234L9.69833 12.6317L14.41 7.92004C14.6758 7.65421 15.1158 7.65421 15.3817 7.92004C15.6475 8.18587 15.6475 8.61671 15.3817 8.89171Z" fill="#10A642"/>
</svg>
