<svg width="18" height="18" viewBox="0 0 18 18" fill="none" xmlns="http://www.w3.org/2000/svg">
<path d="M14.6325 4.3875L10.1775 1.815C9.45 1.395 8.55 1.395 7.815 1.815L3.3675 4.3875C2.64 4.8075 2.19 5.5875 2.19 6.435V11.565C2.19 12.405 2.64 13.185 3.3675 13.6125L7.8225 16.185C8.55 16.605 9.45 16.605 10.185 16.185L14.64 13.6125C15.3675 13.1925 15.8175 12.4125 15.8175 11.565V6.435C15.81 5.5875 15.36 4.815 14.6325 4.3875ZM9 5.505C9.9675 5.505 10.7475 6.285 10.7475 7.2525C10.7475 8.22 9.9675 9 9 9C8.0325 9 7.2525 8.22 7.2525 7.2525C7.2525 6.2925 8.0325 5.505 9 5.505ZM11.01 12.495H6.99C6.3825 12.495 6.03 11.82 6.3675 11.3175C6.8775 10.56 7.8675 10.05 9 10.05C10.1325 10.05 11.1225 10.56 11.6325 11.3175C11.97 11.8125 11.61 12.495 11.01 12.495Z" fill="#10A642"/>
</svg>
